<svg width="277.5" height="325" viewBox="0 0 381 446" fill="none" xmlns="http://www.w3.org/2000/svg"><path d="M369.101 258.693c-10.154 5.702-32.223 25.753-38.547 5.243 9.632 13.618 26.981-3.242 37.347-8.591 1.207-2.673-5.303-8.27-6.819-10.896-5.587-7.177-15.469-19.479-24.908-11.621 16.371-19.025 28.279 15.949 39.709 23.027-2.095.514-4.172 1.33-6.782 2.838Zm-26.407-20.92c.174-2.38 3.852-2.002 3.592.361-.164 2.332-3.859 2.041-3.592-.361Zm4.017 12.954c.559-3.451 5.815-2.628 5.063.89-.53 3.552-5.75 2.539-5.063-.89Zm.377 3.064c1.91 1.787 5.019.451 5.383-2.052.868-3.886-4.749-5.567-6.219-1.907l-10.262-1.752c3.588-11.67 16.201-1.097 21.767 4.588-7.207 3.435-22.769 9.069-22.026-3.112l10.236 1.854c.05.904.444 1.771 1.121 2.381Zm-8.689 7.721c.601-2.341 4.164-1.361 3.494.894-.583 2.302-4.168 1.395-3.494-.894Zm-7.689-9.677c.022-.36.045-.74.075-1.124.504 4.627 2.956 8.713 7.051 11.241-.136 2.656 3.905 3.162 4.535.592.743-2.232-2.44-3.996-3.936-2.099-4.026-2.551-6.117-6.929-6.171-11.518l2.277.415c-.902 11.036 11.579 10.303 19.856 5.91 1.518-1.039 4.719-.827 4.937-2.833-6.844-6.604-19.917-18.097-24.534-4.541l-2.276-.389c1.606-4.247 5.258-7.751 9.828-8.701.733 2.292 4.35 1.714 4.432-.622.3-2.63-3.648-3.537-4.465-.996-4.587.894-8.534 4.017-10.555 8.138 8.117-27.026 24.604-3.637 33.741 8.723-12.247 7.877-35.798 24.832-34.795-2.196Zm-11.536-6.385c-.101.189-10.514-2.466-7.639-.418l7.469 1.337c-2.64 14.524-7.891 28.519-15.373 41.238l-6.574-3.754-.443.765 6.535 3.792c-7.485 12.61-17.435 24.224-28.824 33.634l-4.884-5.726-.672.582 4.823 5.738a133.407 133.407 0 0 1-18.028 12.364l1.106 1.883-1.106-1.883a133.699 133.699 0 0 1-20.652 9.553l-2.596-7.024-.845.276 2.549 7.058c-6.753 2.366-13.883 4.213-21.22 5.48a138.995 138.995 0 0 1-22.76 1.989l-.002-7.48-.898-.025-.051 7.492a138.958 138.958 0 0 1-21.889-1.976c-7.634-1.319-15.051-3.259-22.038-5.764l2.592-7.027c-.285-.084-.555-.207-.832-.313l-2.646 7.01a133.672 133.672 0 0 1-19.838-9.249l-1.14 1.939 1.138-1.939a133.433 133.433 0 0 1-18.701-12.907l4.88-5.728-.674-.58-4.924 5.695c-11.346-9.465-21.193-21.158-28.609-33.808l6.573-3.758-.446-.763-6.594 3.707c-7.404-12.768-12.554-26.787-15.101-41.334.023-.258 10.07-.989 7.323-2.153l-7.477 1.232c-2.5-14.358-2.445-29.721.14-44.054.142-.242 9.78 2.443 7.64.417l-7.47-1.336c2.641-14.525 7.891-28.52 15.373-41.238l6.574 3.754.444-.764-6.534-3.794c7.484-12.609 17.435-24.224 28.823-33.633l4.884 5.725.673-.582-4.824-5.737a133.564 133.564 0 0 1 18.027-12.365l-1.145-1.951 1.147 1.951a133.581 133.581 0 0 1 20.65-9.551l2.596 7.022.847-.276-2.551-7.056c13.893-4.881 29.048-7.409 43.98-7.471l.003 7.48.898.027.051-7.494c14.933.152 30.096 2.775 43.928 7.74l-2.592 7.027c.285.084.555.208.832.313l2.646-7.009a133.97 133.97 0 0 1 19.838 9.248l1.128-1.92-1.128 1.92a133.306 133.306 0 0 1 18.702 12.908l-4.88 5.728.674.579 4.923-5.694c11.348 9.465 21.195 21.158 28.61 33.807l-6.573 3.758.446.763 6.593-3.706c7.404 12.767 12.555 26.786 15.103 41.333-.038.253-10.335 1.048-7.324 2.153l7.478-1.23c2.497 14.357 2.443 29.719-.142 44.053ZM191.898 381.222c1.881 3.039-3.233 5.37-4.834 2.496-1.753-2.995 3.214-5.199 4.834-2.496Zm-5.443 2.851c3.447 5.223 10.295-2.835 3.87-4.689l-.022-10.274c12.413 1.529 3.821 15.375-.824 21.928-4.2-6.096-13.391-20.031-.694-21.944l-.085 10.269c-2.117.366-3.42 2.875-2.245 4.71Zm-9.14-10.355c2.39.149 2.12 3.791-.299 3.548-2.442-.132-2.071-3.762.299-3.548Zm24.43.072c2.378-.212 2.707 3.422.273 3.549-2.426.238-2.655-3.405-.273-3.549Zm-1.976.79c-1.415 2.695 2.993 4.613 4.25 1.963.691-1.3-.265-3.007-1.721-3.213-1.721-4.334-5.603-7.646-10.009-8.865 28.587 3.328 7.742 23.345-2.829 34.328-10.66-11.137-31.142-31.182-2.642-34.348-4.427 1.241-8.326 4.48-10.056 8.815-2.645.381-2.507 4.376.218 4.494 2.403.276 3.518-3.045 1.4-4.197 1.574-4.089 6.393-7.43 10.433-7.935l-.019 2.284c-11.582.988-7.768 13.822-2.624 20.029 1.314 1.296 1.729 4.696 3.828 4.598 5.404-7.778 14.597-22.685.303-24.611l-.005-2.276c4.074.501 8.796 3.866 10.385 7.98a2.341 2.341 0 0 0-.912.954Zm9.935-5.223c12.413 14.69-15.513 27.328-20.279 39.821-5.376-12.622-37.851-30.611-15.805-42.679-9.914 8.279 1.355 19.852 7.49 26.762 2.82 2.161 5.642 8.261 9.224 8.105 6.994-9.11 27.29-22.882 15.138-34.773 1.737.814 3.122 1.719 4.232 2.764Zm-21.601-304.58c-1.88-3.04 3.235-5.369 4.834-2.494 1.752 2.998-3.215 5.198-4.834 2.495Zm5.443-2.85c-3.447-5.225-10.295 2.836-3.87 4.69l.022 10.273c-12.412-1.528-3.821-15.375.824-21.927 4.199 6.097 13.391 20.03.694 21.944l.084-10.269c2.118-.365 3.42-2.88 2.246-4.711Zm9.141 10.355c-2.394-.152-2.12-3.791.298-3.548 2.444.134 2.07 3.764-.298 3.548Zm-24.431-.07c-2.379.21-2.707-3.426-.273-3.55 2.429-.238 2.654 3.406.273 3.55Zm1.976-.792c1.629-3.346-4.403-4.62-4.476-1 2.574 4.366 6.365 9.74 11.957 11.115-28.586-3.325-7.746-23.344 2.828-34.328 10.663 11.14 31.141 31.184 2.639 34.348 4.431-1.24 8.328-4.477 10.058-8.815 2.647-.382 2.508-4.376-.216-4.494-2.405-.276-3.519 3.05-1.401 4.199-1.575 4.088-6.39 7.428-10.433 7.934l.019-2.285c11.58-.987 7.771-13.82 2.623-20.028-1.313-1.297-1.729-4.696-3.827-4.597-4.968 7.227-14.897 22.545-.302 24.609l.004 2.277c-4.074-.502-8.796-3.866-10.385-7.98.384-.225.707-.551.912-.955Zm-9.936 5.225c-12.413-14.686 15.516-27.331 20.28-39.823 5.376 12.622 37.853 30.613 15.802 42.68 9.913-8.265-1.345-19.851-7.487-26.763-2.82-2.16-5.643-8.26-9.224-8.105-6.993 9.116-27.289 22.866-15.139 34.773-1.736-.814-3.121-1.72-4.232-2.762Zm158.091 211.751c.984-2.194 4.314-.577 3.255 1.54-.994 2.135-4.366.604-3.255-1.54Zm-.748 13.515c1.725-3.068 6.355-.486 4.442 2.556-1.733 3.176-6.264.423-4.442-2.556Zm-.703 3.014c1.163 2.323 4.558 2.129 5.76-.109 2.149-3.352-2.529-6.853-5.179-3.901l-9.019-5.12c7.731-9.748 15.375 4.358 18.835 11.69-8.164.639-24.409 1.04-19.591-10.392l8.965 5.211a3.429 3.429 0 0 0 .229 2.621Zm-10.88 4.28c1.34-1.931 4.431.083 2.968 2.027-1.348 1.983-4.381-.108-2.968-2.027Zm-3.349-12.763c-1.226 4.337-.187 9.467 2.671 12.996-1.034 2.455 2.575 4.3 4.052 2.078 1.488-1.914-.894-4.507-2.971-3.294-2.791-3.334-3.313-9.165-1.753-12.892l1.997 1.16c-4.522 9.575 6.354 13.526 15.739 12.317 1.807-.477 5.639.787 6.458-1.024-4.291-8.647-12.18-23.709-21.454-12.586l-2.004-1.136c3.019-3.419 7.461-5.484 12.254-4.841-.09 2.393 3.449 3.086 4.398.923 1.198-2.365-2.194-4.564-3.847-2.449-6.381-.631-9.36 1.242-12.774 4.062 17.012-22.511 24.331 4.649 28.66 19.64-15.169 3.604-43.02 10.845-31.426-14.954Zm15.732-17.079c19.374-3.118 16.273 27.201 24.8 37.259-13.545-1.905-45.284 17.194-45.365-7.759 4.059 16.022 26.674 6.033 38.062 4.569 1.96-2.759-1.947-8.787-2.418-11.968-3.009-9.144-7.555-23.996-19.541-19.928 1.457-.952 2.97-1.697 4.462-2.173Zm-31.125 51.714c1.666-1.648 4.345.895 2.531 2.539-1.702 1.692-4.289-.916-2.531-2.539Zm-5.336 12.48c2.687-2.338 6.096 1.686 3.28 3.906-2.631 2.315-6.123-1.646-3.28-3.906Zm-1.764 2.151c-.103 2.767 3.574 4.111 5.513 2.28 3.129-2.44-.021-7.325-3.531-5.411l-6.716-7.851c11.227-6.44 12.884 9.99 13.679 17.333-7.717-1.983-23.433-7.55-14.826-16.351l6.627 7.91c-.485.63-.746 1.353-.746 2.09Zm-11.667.796c1.931-1.391 4.104 1.564 2.085 2.905-1.957 1.441-4.048-1.573-2.085-2.905Zm-.171-10.6c-1.465 3.352-1.711 7.07-.551 10.596-1.787 1.971.934 4.934 3.096 3.308 2.029-1.306.713-4.557-1.661-4.102-1.446-4.161.025-9.724 2.83-12.676l1.473 1.759c-9.76 10.585 7.013 16.155 16.167 18.74 1.674-1.242-.205-4.118-.026-5.933-.041-8.019-5.457-20.295-14.999-13.778l-1.494-1.744c3.401-2.105 9.252-2.656 13.173-.456-.89 2.223 2.133 4.062 3.804 2.351 2.03-1.817-.466-4.953-2.743-3.593-4.127-2.284-9.32-2.248-13.389-.486 23.9-15.492 21.155 12.936 20.138 28.12-15.34-1.754-44.25-4.141-24.382-24.649a14.87 14.87 0 0 0-1.436 2.543Zm17.537-12.841c24.676-3.398 10.787 29.956 15.038 42.924-12.469-6.277-48.946.57-39.927-22.711-1.773 16.758 22.905 14.712 34.162 17.263 2.861-2.119 1.099-8.613 1.872-12.061.328-9.005 1.122-25.455-11.549-25.31.134-.033.27-.076.404-.105Zm-63.761 46.31c1.768 1.632-1.004 4.194-2.64 2.586-1.675-1.614.989-4.208 2.64-2.586Zm21.209-8.609c2.16-.999 3.741 2.3 1.494 3.24-2.195 1.043-3.685-2.297-1.494-3.24Zm-14.987-3.308.774 2.152c-10.552 4.864-2.492 15.645 4.497 19.729 1.679.772 3.24 3.798 5.173 3.012 2.367-9.162 5.956-26.159-8.247-23.227l-.795-2.137c4.005-.899 9.607.659 12.529 3.984-1.598 1.786.584 4.556 2.755 3.483 2.512-1.026 1.289-4.833-1.339-4.304-3.116-3.487-7.918-5.286-12.476-4.944 27.984-6.536 15.432 19.312 9.244 33.207-13.645-6.72-40.202-18.797-14.395-31.384-3.545 2.479-6.328 6.999-6.401 11.674-2.347 1.248-.852 4.968 1.758 4.151 2.344-.555 2.259-4.053-.134-4.422.057-4.454 3.539-9.183 7.057-10.974Zm5.629 13.259c3.338-1.292 5.169 3.674 1.757 4.768-3.364 1.265-5.169-3.669-1.757-4.768Zm-2.516 1.804c-.843 3.34 3.946 5.168 6.02 2.619 2.083-2.154-.007-5.796-2.935-5.251l-3.584-9.639c12.077-2.852 8.991 13.245 6.833 20.873-6.075-4.293-19.53-14.301-8.27-20.393l3.482 9.679c-.775.478-1.344 1.236-1.546 2.112Zm13.345-19.737c24.329 4.931-.185 31.707-.767 45.41-9.4-10.123-46.074-15.666-29.68-34.796-6.638 10.932 8.682 18.563 16.321 22.651 3.405 1.076 8.183 5.836 11.495 4.484 3.437-10.808 17.747-31.007 2.116-37.8.173.015.345.031.515.051Zm-127.97 9.061c.292 2.368-3.504 2.573-3.704.298-.232-2.302 3.5-2.591 3.704-.298Zm21.859 6.846c2.3.608 1.37 4.141-.969 3.431-2.355-.597-1.329-4.103.969-3.431Zm-4.637-8.951c2.166 2.306 3.525 5.192 3.694 8.437-2.395.357-2.514 3.857-.161 4.415 2.597.815 4.135-2.878 1.782-4.143-.2-4.822-2.452-8.837-6.351-11.71 25.652 12.701-.6 24.533-14.562 31.309-6.18-14.062-18.426-39.836 9.448-33.161-4.578-.336-9.377 1.386-12.515 4.879-2.62-.534-3.883 3.264-1.362 4.294 2.162 1.069 4.371-1.672 2.781-3.47 2.908-3.316 8.592-4.814 12.556-3.924l-.81 2.14c-14.583-2.982-10.428 14.855-8.402 23.187 1.907.835 3.48-2.191 5.151-2.941 7.107-4.14 15.191-14.845 4.662-19.728l.788-2.147a13.793 13.793 0 0 1 3.301 2.563Zm10.968 3.763c15.529 18.933-20.745 24.255-30.204 34.3-.556-13.636-25.087-41.282-.031-45.459-15.583 7.209-1.476 26.636 1.926 37.805 3.269 1.429 8.146-3.381 11.531-4.424 8.253-4.388 22.832-11.391 16.446-22.548.109.109.226.215.332.326Zm-19.984 6.894c3.429 1.115 1.55 6.037-1.77 4.761-3.399-1.172-1.564-6.107 1.77-4.761Zm-.549-.859c-3.973-.646-5.249 5.012-1.469 6.274 3.676 1.47 6.46-3.687 2.993-5.716l3.543-9.655c11.23 6.085-2.237 16.029-8.388 20.332-1.841-7.146-5.631-23.349 6.964-20.854l-3.643 9.619Zm-33.834-23.573c1.969 1.348-.161 4.33-2.106 2.893-2.02-1.356.185-4.281 2.106-2.893Zm-12.404-.535c-.53 3.524-5.934 2.023-5.32-1.174.625-3.382 5.856-2.007 5.32 1.174Zm-1.214-3.481c-3.504-1.924-6.694 2.946-3.56 5.388 2.96 2.708 7.268-1.262 4.789-4.341l6.68-7.873c8.471 9.174-7.107 14.169-14.929 16.264.78-8.018 3.186-23.897 13.779-17.242l-6.76 7.804Zm-4.54-9.791c-.543 2.305-4.222 1.291-3.574-.969.57-2.25 4.144-1.223 3.574.969Zm17.822 1.525c18.101 20.144-10.496 21.88-25.377 23.633-.986-15.575-3.363-43.55 20.353-27.977-4.25-1.829-9.174-1.899-13.454.397-2.289-1.445-4.735 1.816-2.759 3.577 1.665 1.704 4.704-.108 3.822-2.333 3.96-2.188 9.7-1.604 13.183.52l-1.504 1.736c-9.052-6.216-14.819 4.433-15.1 13.743.164 1.802-1.701 4.63-.045 5.873 9.174-2.52 25.936-7.961 16.284-18.644l1.482-1.745c2.977 3.487 4.133 8.271 2.74 12.707-2.37-.466-3.72 2.774-1.683 4.088 2.155 1.62 4.901-1.315 3.115-3.297a14.762 14.762 0 0 0-1.911-13.134c.292.281.578.564.854.856Zm6.152 17.073c1.786-2.379 2.272-4.872 1.749-7.895 8.817 23.305-28.01 16.241-40.084 22.384 4.224-12.894-9.29-47.061 15.706-42.722-16.753 1.048-10.76 24.618-11.263 36.163l1.35 1.141 9.79-1.25c7.334-1.128 18.333-1.948 22.752-7.821Zm-42.92-40.517c-.97 2.176-4.395.46-3.334-1.61.996-2.103 4.322-.433 3.335 1.61Zm-11.639-6.48c-1.711 3.14-6.262-.105-4.623-2.879 1.733-2.958 6.273.067 4.623 2.879Zm.056-3.678c-2.646-2.97-7.35.539-5.2 3.869 1.87 3.525 7.272 1.255 6.01-2.479l8.997-5.156c4.733 11.478-11.552 10.963-19.662 10.271 3.682-7.427 10.999-21.327 18.911-11.574l-9.056 5.069Zm-.616-11.602c-.318 3.094-4.957 1.228-3.276-1.255 1.005-1.51 3.51-.504 3.276 1.255Zm17.666 13.887c3.334 19.498-22.657 10.193-33.728 8.085 4.566-14.996 11.661-42.106 28.757-19.46-3.258-3.186-8.143-4.823-12.711-4.142-1.644-2.119-5.063.062-3.858 2.426.895 2.2 4.45 1.504 4.374-.893 4.596-.62 9.303 1.47 12.232 4.918l-2.009 1.125c-9.209-11.169-17.157 3.788-21.529 12.454.883 1.818 3.83.544 5.608 1.018 9.303 1.371 21.303-2.098 16.671-12.184l1.998-1.145c1.537 4.301 1.033 9.204-1.858 12.896-2.047-1.277-4.461 1.401-2.985 3.275 1.477 2.217 5.093.403 4.07-2.062 2.951-3.673 3.904-8.452 2.779-12.92.99 2.135 1.818 4.328 2.19 6.609Zm2.554 5.765c-.077 24.978-32.505 5.58-45.422 7.496 8.19-10.025 7.498-47.43 29.446-34.912-16.083-4.472-18.543 19.51-23 30.249.959 2.858 8.89 2.832 11.727 3.904 9.544 1.991 24.815 5.507 27.25-6.737Zm-22.49-44.726c-9.311 22.785-31.63-5.704-45.198-8.68 11.615-7.134 23.496-41.836 39.824-22.803-13.488-9.676-24.374 12.228-32.149 20.619-.077 2.626 3.516 3.376 4.989 4.704 1.149.752 3.486 2.23 4.664 2.937 8.197 5.065 21.479 13.62 27.97 2.873-.035.116-.064.236-.1.35Zm-7.696-2.305c.062 2.091-3.11 2.389-3.559.397-.646-2.646 3.606-3.108 3.56-.397Zm-9.154-8.783c-2.69 2.364-5.865-2.213-3.364-4.268 2.651-2.188 5.88 2.18 3.364 4.268Zm-.574-5.296c-2.4-1.057-4.892 1.296-4.337 3.734.54 3.927 6.405 3.65 6.512-.293l10.255-1.791c.395 12.388-14.648 6.386-22.06 2.978 5.836-5.664 18.028-16.261 21.784-4.452l-10.264 1.687a3.539 3.539 0 0 0-1.89-1.863Zm5.553-10.027c.06 2.235-3.47 2.524-3.601.184-.253-2.466 3.619-2.651 3.601-.184Zm10.904 7.565c-1.915-4.151-5.925-7.365-10.534-8.316-.766-2.435-4.579-1.762-4.475.787-.082 2.519 3.597 3.165 4.428.829 4.409.829 8.486 4.907 9.755 8.766l-2.279.376c-4.515-13.573-17.623-2.211-24.555 4.393.184 2.029 4.171 2.086 5.72 3.181 8.294 4.426 19.902 4.373 19.1-6.113l2.277-.397c-.098 4.561-2.142 8.919-6.232 11.474-1.5-1.891-4.626-.189-3.977 2.072.581 2.567 4.66 2.127 4.539-.548 4.178-2.525 6.571-6.626 7.15-11.217 1.42 28.231-21.496 11.811-34.763 3.112 9.568-12.59 25.735-35.587 33.846-8.399Zm-5.16-67.412c-7.852-1.807-17.648 5.55-24.357 9.398-2.086 1.88-6.507 2.589-6.841 5.842 7.86 8.572 18.23 30.278 32.04 20.787-16.365 19.03-28.28-15.957-39.709-23.027 13.152-2.73 36.68-31.538 45.33-8.08-1.513-2.612-3.687-4.268-6.464-4.92Zm-5.675 30.954c-.004 2.469-3.863 2.214-3.596-.231.145-2.252 3.719-2.099 3.596.231Zm-3.975-13.321c.038 3.79-5.881 3.477-5.109-.394.449-3.235 5.195-2.814 5.109.394Zm-.422-2.567c-2.138-2.01-5.557-.063-5.443 2.712-.165 3.597 4.992 4.553 6.28 1.247l10.26 1.75c-3.587 11.671-16.201 1.097-21.766-4.588 7.207-3.433 22.768-9.068 22.026 3.112l-10.236-1.852a3.465 3.465 0 0 0-1.12-2.381Zm8.758-8.216c-.009 2.722-4.276 2.208-3.564-.399.487-2.006 3.61-1.681 3.564.399Zm7.62 10.171c-.023.395-.047.771-.073 1.131-.501-4.629-2.955-8.717-7.05-11.247.127-2.66-3.904-3.164-4.538-.593-.74 2.239 2.44 3.994 3.936 2.099 4.025 2.55 6.119 6.929 6.172 11.517l-2.274-.412c.886-11.037-11.575-10.307-19.86-5.913-1.518 1.04-4.719.829-4.935 2.833 6.84 6.604 19.915 18.098 24.53 4.542l2.278.389c-1.607 4.246-5.257 7.75-9.83 8.702-.77-2.389-4.547-1.63-4.437.808-.102 2.537 3.699 3.251 4.473.81 4.588-.896 8.534-4.019 10.553-8.138-8.117 27.024-24.602 3.637-33.74-8.725 12.251-7.879 35.797-24.828 34.795 2.197Zm2.518-37.397c-.017 2.961-4.67 2.038-3.45-.705.739-1.685 3.506-1.174 3.45.705Zm.937-14.103c.143 2.544-3.637 3.973-4.925 1.597-1.974-3.693 4.76-6.18 4.925-1.597Zm.319-1.59c-1.612-3.18-6.416-1.35-6.265 1.947-.128 2.929 3.808 4.242 5.684 2.062l9.019 5.12c-7.73 9.749-15.374-4.358-18.835-11.688 8.163-.641 24.41-1.042 19.591 10.391l-8.963-5.211a3.458 3.458 0 0 0-.231-2.621Zm11.223-5.344c.078 1.85-2.746 2.574-3.512.851-1.139-2.571 3.443-3.782 3.512-.851Zm3.007 13.826c1.225-4.339.186-9.462-2.668-12.992 1.028-2.453-2.573-4.307-4.056-2.082-1.489 1.902.891 4.513 2.97 3.294 2.79 3.334 3.315 9.166 1.755 12.893l-1.998-1.161c4.522-9.583-6.36-13.524-15.739-12.316-1.807.477-5.64-.788-6.458 1.024 4.292 8.646 12.18 23.709 21.454 12.585l2.005 1.138c-3.02 3.418-7.465 5.484-12.258 4.84.093-2.395-3.447-3.085-4.394-.924-1.201 2.353 2.193 4.569 3.847 2.449 6.38.633 9.359-1.241 12.773-4.062-17.013 22.515-24.33-4.655-28.66-19.64 15.168-3.605 43.02-10.841 31.427 14.954Zm-15.733 17.081c-19.375 3.116-16.273-27.199-24.8-37.261 13.536 1.899 45.296-17.183 45.366 7.762-4.058-16.029-26.677-6.03-38.063-4.572-1.96 2.75 1.947 8.795 2.418 11.968 3.004 9.132 7.558 24.003 19.541 19.928-1.457.952-2.97 1.698-4.462 2.175Zm31.7-53.037c.073 2.029-3.15 2.559-3.643.527-.638-2.472 3.627-3.202 3.643-.527Zm4.76-11.158c-2.686 2.337-6.093-1.686-3.278-3.907 2.636-2.319 6.12 1.661 3.278 3.907Zm1.738-2.562c-.24-2.56-3.683-3.562-5.487-1.87-3.126 2.428.018 7.33 3.533 5.411l6.716 7.852c-11.228 6.439-12.885-9.991-13.68-17.334 7.716 1.983 23.433 7.55 14.826 16.351l-6.63-7.913c.575-.747.838-1.625.722-2.497Zm11.695-.385c-1.932 1.391-4.104-1.562-2.086-2.906 1.955-1.44 4.05 1.57 2.086 2.906Zm.17 10.601c1.462-3.367 1.715-7.022.551-10.597 1.787-1.97-.933-4.935-3.096-3.31-2.03 1.309-.713 4.558 1.662 4.103 1.445 4.16-.026 9.725-2.83 12.676l-1.474-1.759c9.761-10.586-7.017-16.155-16.167-18.739-1.673 1.242.204 4.117.026 5.933.04 8.017 5.457 20.296 15 13.777l1.494 1.744c-3.399 2.105-9.257 2.656-13.175.456.891-2.221-2.133-4.062-3.804-2.351-2.029 1.809.466 4.958 2.743 3.593 4.128 2.283 9.32 2.25 13.387.489-23.898 15.488-21.152-12.94-20.136-28.123 15.343 1.754 44.251 4.143 24.382 24.651a14.87 14.87 0 0 0 1.437-2.543Zm-17.538 12.839C59.41 126.323 73.303 93.016 69.05 80.013c12.472 6.277 48.943-.572 39.928 22.711 1.763-16.79-22.898-14.692-34.161-17.262-2.859 2.118-1.103 8.615-1.872 12.06-.306 9.324-1.147 25.323 11.548 25.31-.135.033-.271.076-.405.105Zm63.761-46.308c-1.765-1.632 1.004-4.196 2.64-2.586 1.677 1.624-.99 4.203-2.64 2.586Zm-21.209 8.607c-2.16 1-3.741-2.299-1.494-3.24 2.198-1.043 3.685 2.3 1.494 3.24Zm14.988 3.31-.774-2.154c10.542-4.848 2.5-15.647-4.499-19.728-1.678-.773-3.239-3.8-5.172-3.013-2.255 8.591-6.072 26.26 8.249 23.227l.793 2.137c-4 .902-9.607-.659-12.527-3.984 1.598-1.79-.588-4.555-2.757-3.483-2.511 1.026-1.29 4.833 1.34 4.306 3.116 3.485 7.918 5.285 12.478 4.943-27.984 6.535-15.433-19.313-9.246-33.208 13.645 6.72 40.202 18.797 14.394 31.385 3.545-2.478 6.329-6.998 6.402-11.674 2.35-1.256.848-4.967-1.757-4.151-2.345.554-2.261 4.054.133 4.423-.058 4.454-3.538 9.18-7.057 10.973Zm-5.63-13.26c-3.336 1.292-5.171-3.672-1.756-4.767 3.367-1.267 5.167 3.673 1.756 4.766Zm2.516-1.804c.835-3.357-3.945-5.16-6.018-2.62-2.082 2.147.002 5.797 2.935 5.253l3.582 9.639c-12.076 2.85-8.989-13.246-6.832-20.875 6.076 4.293 19.53 14.303 8.27 20.393l-3.482-9.678c.776-.48 1.344-1.237 1.545-2.112ZM125.17 93.219c-24.228-4.635.082-31.725.767-45.411 9.4 10.125 46.072 15.663 29.679 34.796 6.634-10.953-8.683-18.553-16.322-22.651-3.404-1.075-8.181-5.836-11.493-4.484-3.438 10.816-17.749 30.997-2.119 37.8-.172-.015-.344-.03-.512-.05Zm127.969-9.062c-.289-2.372 3.504-2.569 3.704-.297.23 2.303-3.5 2.589-3.704.297Zm-21.859-6.846c-2.3-.606-1.372-4.14.969-3.43 2.354.596 1.329 4.103-.969 3.43Zm4.636 8.951c-2.165-2.306-3.525-5.192-3.693-8.436 2.394-.357 2.514-3.858.16-4.416-2.599-.815-4.132 2.885-1.781 4.143.199 4.824 2.452 8.836 6.35 11.709-25.654-12.705.612-24.535 14.562-31.308 6.18 14.06 18.427 39.836-9.447 33.163 4.579.333 9.377-1.387 12.515-4.88 2.619.533 3.885-3.264 1.361-4.295-2.162-1.069-4.369 1.676-2.779 3.47-2.91 3.316-8.592 4.815-12.558 3.925l.812-2.14c11.236 2.986 12.104-10.378 9.416-17.955-.782-1.657.002-4.982-2.001-5.59-7.164 4.884-21.667 16.293-8.827 23.026l-.787 2.147a13.734 13.734 0 0 1-3.303-2.563ZM224.948 82.5c-15.529-18.931 20.746-24.257 30.204-34.3.558 13.635 25.087 41.281.031 45.458 15.583-7.206 1.478-26.638-1.926-37.804-3.264-1.43-8.149 3.381-11.53 4.423-8.25 4.376-22.838 11.42-16.444 22.55-.111-.11-.228-.216-.335-.327Zm19.984-6.894c-3.429-1.12-1.546-6.04 1.771-4.762 3.398 1.169 1.566 6.106-1.771 4.762Zm.55.858c3.97.647 5.25-5.008 1.47-6.274-3.681-1.469-6.46 3.695-2.994 5.717l-3.543 9.654c-11.23-6.084 2.237-16.029 8.387-20.33 1.842 7.146 5.631 23.349-6.964 20.853l3.644-9.62Zm33.833 23.573c-1.968-1.342.161-4.333 2.107-2.892 2.024 1.352-.186 4.282-2.107 2.892Zm12.405.536c.53-3.518 5.929-2.035 5.321 1.173-.626 3.383-5.86 2.006-5.321-1.173Zm1.215 3.481c3.498 1.919 6.698-2.935 3.559-5.388-2.962-2.709-7.267 1.264-4.791 4.343l-6.68 7.872c-8.47-9.174 7.109-14.171 14.931-16.266-.78 8.02-3.186 23.897-13.779 17.242l6.76-7.803Zm4.539 9.79c.543-2.311 4.227-1.279 3.573.971-.57 2.248-4.141 1.222-3.573-.971Zm-17.821-1.524c-18.101-20.151 10.5-21.878 25.376-23.632.987 15.585 3.361 43.547-20.354 27.976 4.252 1.828 9.174 1.9 13.456-.398 2.291 1.452 4.733-1.83 2.757-3.577-1.663-1.702-4.702.107-3.822 2.335-3.961 2.188-9.698 1.602-13.181-.522l1.502-1.736c9.054 6.217 14.82-4.435 15.101-13.743-.164-1.803 1.702-4.63.044-5.873-9.174 2.52-25.935 7.964-16.283 18.644l-1.481 1.745c-2.98-3.489-4.134-8.266-2.741-12.706 2.37.466 3.721-2.773 1.684-4.087-2.154-1.62-4.903 1.312-3.117 3.295a14.778 14.778 0 0 0 1.911 13.134c-.29-.278-.577-.563-.852-.855ZM273.5 95.248c-1.783 2.297-2.278 5.066-1.749 7.894-8.818-23.305 28.009-16.242 40.084-22.383-4.223 12.893 9.289 47.06-15.707 42.72 10.236.225 12.066-11.087 11.756-19.69-.537-3.73 1.051-15.669-1.842-17.616-9.993 1.909-25.646 1.123-32.542 9.075Zm42.921 40.515c.969-2.174 4.393-.46 3.334 1.61-.997 2.103-4.324.433-3.334-1.61Zm11.637 6.481c1.706-3.123 6.259.067 4.623 2.878-1.731 2.958-6.271-.065-4.623-2.878Zm-.054 3.677c2.638 2.953 7.348-.501 5.199-3.869-1.867-3.525-7.277-1.251-6.007 2.479l-9 5.156c-4.733-11.478 11.551-10.963 19.663-10.27-3.681 7.426-11.001 21.328-18.912 11.573l9.057-5.069Zm.614 11.602c.115-2.325 3.694-2.048 3.598.212.04 2.476-3.864 2.212-3.598-.212Zm-17.666-13.886c-3.338-19.507 22.684-10.185 33.729-8.085-4.565 14.998-11.662 42.105-28.757 19.459 3.258 3.186 8.141 4.823 12.712 4.143 1.641 2.113 5.061-.05 3.857-2.426-.901-2.201-4.445-1.503-4.376.892-4.596.618-9.302-1.47-12.229-4.918l2.008-1.125c9.205 11.168 17.161-3.785 21.529-12.453-.88-1.818-3.829-.543-5.605-1.019-9.305-1.373-21.308 2.102-16.675 12.186l-1.996 1.143c-1.536-4.3-1.034-9.204 1.857-12.896 2.045 1.277 4.463-1.4 2.985-3.275-1.471-2.213-5.098-.407-4.067 2.058-2.954 3.671-3.909 8.46-2.781 12.927-.989-2.132-1.82-4.332-2.191-6.611Zm-2.553-5.767c.08-24.977 32.503-5.576 45.421-7.495-8.188 10.026-7.496 47.43-29.444 34.913 16.084 4.47 18.541-19.507 22.998-30.248-.93-2.844-8.866-2.834-11.725-3.905-9.538-1.991-24.819-5.508-27.25 6.735Zm22.49 44.728c9.313-22.784 31.631 5.704 45.198 8.68-11.618 7.134-23.497 41.835-39.824 22.803 13.49 9.675 24.374-12.227 32.148-20.619.079-2.627-3.541-3.392-4.987-4.705a196.179 196.179 0 0 0-4.664-2.937c-8.203-5.066-21.48-13.617-27.97-2.872.034-.115.064-.237.099-.35Zm8.205 1.048c1.702-1.712 4.276 1.054 2.54 2.652-1.697 1.652-4.155-1.08-2.54-2.652Zm8.645 10.04c2.681-2.354 5.87 2.187 3.365 4.268-2.65 2.188-5.881-2.182-3.365-4.268Zm.573 5.295c2.4 1.041 4.883-1.254 4.337-3.734-.539-3.926-6.404-3.65-6.509.293l-10.256 1.792c-.396-12.389 14.647-6.387 22.059-2.979-5.837 5.667-18.026 16.261-21.785 4.452l10.265-1.687a3.53 3.53 0 0 0 1.889 1.863Zm-4.77 8.51c1.959-1.436 3.974 1.718 2.041 3.017-1.947 1.353-3.967-1.707-2.041-3.017Zm-11.686-6.046c1.915 4.149 5.926 7.364 10.534 8.314.808 2.537 4.774 1.667 4.467-.974-.109-2.42-3.628-2.876-4.421-.642-4.409-.829-8.484-4.907-9.754-8.766l2.279-.375c4.518 13.575 17.622 2.21 24.554-4.393-.18-2.03-4.171-2.086-5.719-3.182-8.287-4.426-19.918-4.369-19.097 6.112l-2.28.398c.099-4.56 2.142-8.917 6.232-11.473 1.5 1.883 4.621.204 3.977-2.073-.58-2.567-4.664-2.126-4.539.548-4.177 2.527-6.571 6.626-7.149 11.216-1.421-28.226 21.489-11.812 34.763-3.111-9.572 12.585-25.732 35.592-33.847 8.401Zm40.489 47.901c-4.487-5.197-9.788-13.772-15.158-19.124-14.073-13.931-27.105 1.81-29.193 16.495l-.008-.002-.045.239-4.42-.759a137.308 137.308 0 0 0 2.072-23.183l-2.206-.012 2.206-.011a137.214 137.214 0 0 0-1.927-22.31l4.44-.731.033.176.004-.002c1.953 14.589 14.904 30.573 29.07 16.668 6.446-6.318 11.334-15.152 17.194-21.074 1.777-1.741 3.108-2.64 5.593-3.961l-.39-2.221c-10.828-1.497-19.968-11.771-29.943-16.111-18.053-8.432-24.88 10.901-21.773 25.305l-.009.003.043.234-4.421.762a131.4 131.4 0 0 0-6.057-22.457l-2.076.742 2.072-.75a134.081 134.081 0 0 0-9.553-20.277l3.899-2.193.091.152.008-.004c5.616 10.817 21.726 22.908 31.056 9.191 6.408-9.492 6.875-22.415 11.933-31.054.703-1.136 1.535-2.207 2.784-3.58l-1.142-1.952c-3.085.635-5.534.837-9.654.086-7.726-1.12-18.789-5.63-28.09-4.995-16.718 1.031-14.257 20.837-7.605 31.076l-.008.005.123.21-3.879 2.218a135.259 135.259 0 0 0-13.548-19.053l-1.69 1.397 1.666-1.425c-4.641-5.458-10.459-11.276-15.991-15.856l2.914-3.37.135.116.007-.008c10.333 9.535 30.813 13.94 33.015-4.687.943-7.95-.642-17.632-.609-25.264-.034-4.071.636-6.43 1.842-9.349-2.318-2.73-3.324.059-5.801.59-7.596 2.528-15.92 2.21-24.842 3.673-23.423 3.064-18.836 23-4.691 34.11l-.005.006.184.158-2.891 3.393a137.822 137.822 0 0 0-19.329-13.341 138.194 138.194 0 0 0-20.511-9.56l1.567-4.152.166.064.003-.01c11.342 4.832 31.607 3.763 29.805-12.623-.692-8.06-7.017-18.75-9.76-26.414-1.427-3.853-1.633-6.296-1.512-9.454l-2.146-.78c-5.502 7.325-17.279 10.463-25.203 15.18-20.93 10.74-9.672 27.978 7.47 33.602l-.001.005c.077.024.153.053.23.08l-1.535 4.159c-7.236-2.593-14.901-4.6-22.788-5.961l-.385 2.167.384-2.168c-7.377-1.27-14.974-1.95-22.617-2.04l.03-4.42.178.006v-.01c10.017-.062 25.22-3.462 25.181-15.707-.171-10.22-13.569-19.953-19.913-27.741-2.668-3.135-3.704-5.359-4.682-8.369-3.568-.628-2.521 2.195-4.057 4.174-3.902 6.439-11.465 12.546-16.606 18.538-15.881 17.128.339 29.59 18.886 29.1l.001 4.415c-7.931.043-15.843.734-23.517 2.054l.383 2.164-.385-2.163c-7.579 1.308-14.95 3.218-21.941 5.668l-1.503-4.162.168-.056-.002-.01c11.887-3.563 26.646-17.11 14.598-28.574-6.144-5.929-17.254-9.741-24.704-14.046-3.603-2.037-5.352-3.775-7.319-6.267l-2.153.758c.084 3.194-.142 5.643-1.576 9.446-2.276 5.752-5.535 12.321-7.834 18.143-9.092 21.265 10.839 27.728 27.865 20.934l1.537 4.155a138.205 138.205 0 0 0-21.351 9.875 137.77 137.77 0 0 0-18.632 12.78l-2.886-3.432c.021-.02.111-.096.134-.116l-.002-.001c14.21-10.939 18.936-31.002-4.47-34.116-5.583-.856-14.359-1.626-19.821-2.49-4.06-.709-6.315-1.752-9.052-3.43l-1.751 1.45c4.185 10.266-.315 22.43.917 33.624 1.583 19.634 22.088 15.761 33.088 5.885l.007.007.184-.159 2.893 3.391c-5.777 4.759-11.842 10.741-16.67 16.436l1.665 1.425-1.69-1.397a135.176 135.176 0 0 0-13.09 18.291l-3.875-2.251.09-.153-.004-.002c6.726-10.188 9.292-30.013-7.412-31.121-11.23-.796-22.655 5.2-33.247 5.269-2.488.325-4.417-1.985-5.677 1.357 2.122 2.349 3.53 4.351 4.888 8.198 3.105 8.009 4.453 18.933 9.609 26.524 9.378 13.547 24.97 2.287 31.113-9.006l.015.009.121-.209 3.88 2.216a133.655 133.655 0 0 0-9.996 21.048l2.074.751-2.078-.743a131.323 131.323 0 0 0-5.895 21.586l-4.42-.791.032-.172-.01-.001c3.177-14.376-3.464-33.752-21.594-25.442-7.04 3.235-14.871 9.436-20.964 12.802-3.585 2.07-5.963 2.697-9.095 3.131l-.4 2.22c2.779 1.469 4.787 2.866 7.45 6.052 4.48 5.18 9.792 13.787 15.159 19.124 14.072 13.924 27.104-1.803 29.192-16.494l.01.001.043-.238 4.422.757a137.245 137.245 0 0 0-2.074 23.184l2.206.011-2.206.012c.038 7.562.69 15.011 1.928 22.309l-4.44.731-.032-.174-.004.001c-1.955-14.589-14.904-30.572-29.072-16.668-6.455 6.334-11.326 15.142-17.19 21.075-1.78 1.739-3.109 2.638-5.597 3.959l.392 2.221c10.825 1.497 19.972 11.774 29.941 16.111 18.058 8.438 24.88-10.918 21.773-25.305l.01-.001-.043-.236 4.42-.76a131.66 131.66 0 0 0 6.058 22.456l2.078-.744-2.074.752a133.752 133.752 0 0 0 9.554 20.276l-3.901 2.193-.09-.15-.006.004c-5.618-10.818-21.728-22.91-31.057-9.193-6.41 9.495-6.874 22.413-11.933 31.056-.705 1.136-1.537 2.206-2.786 3.578l1.142 1.954c3.085-.637 5.536-.839 9.654-.087 7.724 1.117 18.789 5.629 28.09 4.995 16.718-1.032 14.257-20.838 7.605-31.075l.008-.006-.122-.21 3.88-2.219a134.939 134.939 0 0 0 13.547 19.053l1.683-1.39-1.658 1.418c4.64 5.458 10.458 11.276 15.991 15.857l-2.915 3.371-.135-.118-.007.008c-10.332-9.532-30.813-13.94-33.013 4.687-.946 7.948.64 17.634.606 25.265.014 4.087-.634 6.43-1.84 9.349 2.317 2.73 3.322-.059 5.8-.591 7.597-2.527 15.916-2.208 24.842-3.672 23.426-3.072 18.831-22.98 4.695-34.116l.002-.001a8.307 8.307 0 0 1-.184-.159l2.89-3.392a137.809 137.809 0 0 0 19.329 13.343 138.37 138.37 0 0 0 20.513 9.56l-1.569 4.151-.166-.065-.002.009c-10.783-4.422-30.203-4.312-29.865 11.124.089 8.795 6.916 19.662 9.818 27.915 1.428 3.854 1.632 6.295 1.513 9.455l2.146.779c5.502-7.326 17.28-10.462 25.204-15.18 20.929-10.741 9.67-27.979-7.471-33.603l.001-.004c-.077-.024-.152-.054-.229-.079l1.534-4.161c7.236 2.594 14.901 4.601 22.788 5.962l.385-2.162-.383 2.162a143.733 143.733 0 0 0 22.616 2.041l-.029 4.42-.18-.006v.011c-10.017.057-25.22 3.466-25.18 15.705.171 10.224 13.569 19.952 19.913 27.742 2.668 3.134 3.704 5.359 4.682 8.368 3.57.628 2.522-2.196 4.058-4.174 3.914-6.455 11.454-12.532 16.605-18.538 15.881-17.13-.341-29.591-18.885-29.1l-.002-4.414c7.929-.042 15.84-.734 23.518-2.055l-.381-2.145.382 2.145c7.579-1.309 14.95-3.218 21.941-5.669l1.502 4.162-.168.056.004.009c-17.537 5.605-28.24 23.087-7.671 33.562 5.477 3.043 12.337 6.07 17.775 9.059 3.604 2.038 5.352 3.776 7.319 6.268l2.153-.758c-.083-3.191.143-5.642 1.577-9.446 2.256-5.689 5.547-12.375 7.835-18.143 9.098-21.67-11.101-27.567-27.867-20.935l-1.536-4.155a138.4 138.4 0 0 0 21.351-9.873 138.06 138.06 0 0 0 18.632-12.782l2.881 3.428c-14.239 10.931-19.201 31.084 4.343 34.237 5.584.858 14.358 1.625 19.82 2.492 4.062.707 6.315 1.751 9.053 3.428l1.752-1.448c-4.196-10.337.32-22.394-.917-33.625-1.585-19.633-22.089-15.762-33.089-5.885l-.007-.008-.185.159-2.892-3.391c5.777-4.759 11.842-10.74 16.671-16.436l-1.666-1.425 1.69 1.397a135.082 135.082 0 0 0 13.089-18.29l3.875 2.25-.089.153.004.002c-6.721 10.177-9.299 30.011 7.411 31.122 11.228.796 22.655-5.2 33.25-5.27 2.481-.325 4.417 1.987 5.676-1.356-7.335-8.034-7.523-21.33-12.447-31.323-8.02-17.546-26.077-7.771-33.165 5.606l-.015-.008-.12.208-3.881-2.215a133.82 133.82 0 0 0 9.997-21.048l-2.072-.751 2.076.743a131.583 131.583 0 0 0 5.895-21.585l4.419.791-.031.171.01.002c-3.178 14.381 3.465 33.747 21.593 25.44 7.038-3.236 14.873-9.432 20.966-12.801 3.585-2.071 5.962-2.698 9.093-3.131l.401-2.22c-2.78-1.469-4.787-2.866-7.451-6.052Z" fill="#FBCFA4" class="github-india-mandala-animation"/><path d="M305.145 422.815c0 12.777-50.308 23.136-112.367 23.136-62.06 0-112.368-10.359-112.368-23.136 0-12.776 50.308-23.135 112.368-23.135 62.059 0 112.367 10.359 112.367 23.135Z" fill="#BFEEF5"/><path d="M198.586 214.499c2.588 13.953 6.256 35.284 8.768 56.412 6.322-7.391 13.916-14.247 24.064-19.439l.115.131c-9.671-11.091-21.487-20.783-33.111-37.337l.164.233Zm-26.169 56.283c3.599-16.324 6.373-32.972 6.88-49.679-7.551 10.323-17.932 23.596-30.921 38.084 9.118 2.959 17.033 7.156 24.041 11.595Zm-49.968 88.509c-7.127-3.379-12.483-9.035-15.48-18.501-3.369-10.639-.8-26.515 6.627-34.995a94.764 94.764 0 0 1-6.934-5.413c-14.296 12.425-30.19 24.608-47.565 35.605-14.377 25.604-24.952 35.144-37.524 40.061-4.944 1.934-10.484-.67-12.088-5.73-2.937-9.267-5.005-19.12-5.019-28.699-.046-32.215 36.322-44.791 78.616-65.817 6.496-15.338 22.135-20.868 38.164-20.868.412 0 .823.002 1.231.008 17.201-10.972 34.297-24.648 49.731-42.776 1.197-1.41 2.31-2.963 3.428-4.5-46.167-3.715-59.21-12.392-68.416-18.391-7.047-4.591-13.483-11.84-18.635-22.371-12.972 2.384-22.057 6.092-32.663 15.584a2.631 2.631 0 0 1-1.766.676 2.651 2.651 0 0 1-1.768-4.625c11.08-9.917 20.874-14.045 33.965-16.601a97.678 97.678 0 0 1-1.924-5.074 79.973 79.973 0 0 0-6.51.583c-9.209 1.204-18.834 4.02-27.1 7.932a2.647 2.647 0 0 1-3.53-1.263 2.65 2.65 0 0 1 1.263-3.528c8.753-4.142 18.938-7.124 28.68-8.396a83.71 83.71 0 0 1 5.529-.541c-5.384-18.357-7.839-43.336-5.644-76.528.687-10.39 5.77-21.747 10.928-30.319-.701-14.242 2.528-23.249 8.073-27.248 4.774-3.44 20.695-8.02 39.131-7.336C155.062 2.426 178.798.468 187.374 0c8.575.468 32.31 2.426 52.126 10.22 18.434-.684 34.354 3.896 39.129 7.336 5.527 3.985 8.753 12.942 8.081 27.098 4.904 8.556 10.28 20.781 10.92 30.47 2.195 33.191-.258 58.17-5.644 76.527a83.57 83.57 0 0 1 5.528.541c9.743 1.272 19.93 4.254 28.682 8.396a2.649 2.649 0 0 1 1.261 3.528 2.647 2.647 0 0 1-3.528 1.263c-8.267-3.911-17.891-6.728-27.101-7.932a79.977 79.977 0 0 0-6.51-.583 95.807 95.807 0 0 1-1.924 5.074c13.092 2.556 22.887 6.684 33.966 16.601a2.65 2.65 0 1 1-3.535 3.949c-10.604-9.492-19.691-13.2-32.661-15.584-5.154 10.531-11.59 17.78-18.636 22.371-8.866 5.776-21.29 14.037-63.427 17.959 11.713 9.438 28.232 23.817 45.48 37.63a95.39 95.39 0 0 1 3.776-.822c24.445-4.819 46.531 15.43 46.531 21.476 0 2.902-3.672 5.23-13.732 6.068 41.902 26.502 94.353 46.552 94.305 79.722-.013 9.578-2.081 19.431-5.019 28.696-1.604 5.06-7.145 7.666-12.088 5.732-12.572-4.916-24.542-17.538-38.92-43.141-17.376-10.999-36.696-33.859-53.825-51.433l-1.271-1.308a153.456 153.456 0 0 1-10.628 17.797l-.074-.108c7.478 10.936 15.561 20.473 13.416 33.143-4.048 23.905-27.938 19.209-45.015 25.868 1.753 4.688 13.233 8.614 15.021 32.757 1.4 18.924-2.186 27.459-14.677 32.456-26.731 1.925-32.521-2.355-34.931-5.485-.569-.742-1.276-1.727-1.928-3.028-38.792-2.492-66.764-23.939-68.073-63.963" fill="#493B38"/><path d="M286.155 271.586c41.903 26.502 94.355 46.552 94.306 79.722-.014 9.578-2.082 19.431-5.019 28.696-1.603 5.06-7.145 7.666-12.088 5.732-12.571-4.916-24.543-17.538-38.92-43.141-17.375-10.999-36.696-33.859-53.825-51.433m-149.447 67.482-.113-.061.113.061Zm-5.865-4.119Zm4.705 3.47-.217-.128.217.128Zm-3.575-2.489c-.062-.052-.128-.102-.19-.156.062.054.128.104.19.156Zm1.038.814-.082-.063.082.063Zm1.27.886c-.078-.051-.154-.103-.23-.154.076.051.152.103.23.154Zm-4.562-3.774-.052-.055.052.055Z" fill="#493B38"/><path d="M171.899 387.018s-8.197 30.809-21.764 16.676c-12.682-13.209-20.424-18.272-23.228-42.652a36.85 36.85 0 0 1-4.6-1.823c.048.023.094.05.143.072.295 9.032 1.953 17.116 4.783 24.254 9.708 24.482 33.252 37.778 63.289 39.709 0 0-19.188-14.189-18.623-36.236" fill="#1D0C1D"/><path d="M242.058 399.311c-.334-6.539-1.466-12.069-3.218-16.757 0 0-6.921-12.122-28.728-25.054-18.158-3.598-30.992 6.786-48.678 6.786-13.242 0-25.092-.183-34.527-3.244 2.804 24.38 10.545 29.442 23.228 42.652 13.567 14.134 21.764-16.676 21.764-16.676-.564 22.046 18.623 36.236 18.623 36.236.173.346.35.668.528.97.49.836.981 1.512 1.401 2.059 2.409 3.129 8.199 7.409 34.929 5.484 12.491-4.997 15.642-13.504 14.678-32.456Z" fill="#241829"/><path d="M191.8 376.614c-1.16 5.268-11.528 23.263-14 1.854-1.397-12.118-23.759-1.548-22.6-6.818 1.16-5.266 11.757-7.41 23.669-4.786 11.914 2.621 14.09 4.484 12.931 9.75Z" fill="#342B4F"/><path d="m113.265 352.439-.164-.188.164.188Zm145.371-44.896.074.108-.074-.108Zm.074.108.008-.012-.008.012Zm-27.292-56.179c.038.043.078.086.115.131l-.115-.131Zm-123.815 91.161c-.035-.094-.068-.191-.103-.286.035.095.068.192.103.286Zm3.708 7.289-.028-.043.028.043Zm-.771-1.192Zm1.74 2.512Zm-2.573-3.944-.132-.247.132.247Zm-1.434-2.975c-.037-.088-.076-.176-.112-.266.036.09.075.178.112.266Zm.63 1.405-.012-.027.012.027Z" fill="#493B38"/><path d="M249.025 328.875c0-1.479-.687-3.561-2.053-6.348a145.749 145.749 0 0 1-8.383 8.617c2.487.499 4.539.784 6.141.784 2.851 0 4.295-.894 4.295-3.053Z" fill="#2F1A3C"/><path d="M253.054 338.963c7.858-6.429 3.624-13.545-2.791-20.238a148.631 148.631 0 0 1-3.292 3.802c1.368 2.787 2.055 4.868 2.055 6.348 0 2.159-1.444 3.054-4.295 3.054-1.603 0-3.655-.286-6.143-.784-8.309 7.857-64.31-17.442-74.174-12.084-.77.82 20.134 22.136 34.629 36.724 3.373 3.397 6.4 6.428 8.725 8.752.378-.134.756-.266 1.132-.402 16.094-5.777 30.95-14.442 44.154-25.172Z" fill="#19101D"/><path d="M266.976 319.9c-2.43-4.051-5.388-8.047-8.266-12.25a152.138 152.138 0 0 1-8.446 11.075c6.413 6.693 10.648 13.809 2.79 20.239-13.205 10.729-28.06 19.394-44.154 25.172-.376.136-.754.268-1.131.401a3295.41 3295.41 0 0 0 4.737 4.724c25.276-1.404 55.498-4.669 59.546-28.575 1.313-7.757-1.21-14.338-5.076-20.786Zm-144.498-64.959c6.198-.477 21.608 2.651 25.897 4.247A500.68 500.68 0 0 0 175.06 226.8c-4.662-.186-8.756-1.359-12.682-3.891-12.718 12.952-26.275 23.341-39.9 32.032Z" fill="#241829"/><path d="M179.381 207.878a209.767 209.767 0 0 1-3.746-.212c-1.116 1.537-2.229 3.091-3.428 4.499a204.925 204.925 0 0 1-9.829 10.744c3.927 2.532 8.02 3.705 12.683 3.89a466.608 466.608 0 0 0 4.236-5.696l.084-13.225Z" fill="#19101D"/><path d="M154.83 268.496c.026-.001.053-.005.08-.008-.15-.071-.184-.073-.08.008Zm26.154-42.585c1.615-6.229 3.281-11.923 5.344-16.725-.565-.008-1.576-.066-4.009-.183-3.506 3.643-6.151 12.539-8.826 22.371-.6 2.21-1.204 4.466-1.817 6.722 2.573-3.657 4.928-7.501 7.925-10.961.435-.435.903-.836 1.383-1.224Z" fill="#1D0C1D"/><path d="M179.602 227.135c-2.999 3.46-5.352 7.305-7.925 10.961-4.087 15.014-8.684 29.956-16.767 30.392.825.395 5.289 2.984 10.865 6.368 7.412-15.397 10.979-32.226 14.596-46.546.203-.81.408-1.607.614-2.399a17.15 17.15 0 0 0-1.383 1.224Z" fill="#382738"/><path d="M200.438 271.975c-2.512-21.128-6.18-42.459-8.768-56.412l-.165-.233c.054.077.11.153.165.23l-.835-6.769c-3.921.256-3.477.407-4.506.395-6.968 16.228-9.43 42.566-20.554 65.67 7.812 4.743 17.799 11.038 22.991 15.019l11.672-17.9Z" fill="#155773"/><path d="M324.434 342.595c14.377 25.602 26.349 38.225 38.92 43.141 4.943 1.935 10.485-.671 12.088-5.731 2.937-9.266 5.005-19.12 5.02-28.697.004-3.768-.673-7.365-1.931-10.824-18.238 35.423-36.254 9.343-54.097 2.111Z" fill="#1D0C1D"/><path d="M286.155 271.586s-10.68 7.322-16.816 18.268l1.27 1.308c17.129 17.574 36.45 40.434 53.825 51.433 17.843 7.232 35.859 33.312 54.097-2.111-9.809-26.982-55.233-45.408-92.376-68.898Z" fill="#382738"/><path d="M326.196 160.588c-8.752-4.141-18.939-7.124-28.682-8.396a84.944 84.944 0 0 0-5.528-.541c5.386-18.357 7.839-43.336 5.644-76.528-.64-9.688-6.016-21.913-10.92-30.47.672-14.155-2.554-23.113-8.081-27.095-4.775-3.442-20.695-8.022-39.129-7.338C219.684 2.426 195.949.468 187.374 0c-8.576.468-32.312 2.426-52.125 10.22-18.436-.684-34.357 3.896-39.13 7.338-5.546 3.997-8.775 13.004-8.074 27.248-5.157 8.57-10.241 19.926-10.928 30.317-2.195 33.192.26 58.171 5.644 76.528-1.821.117-3.67.299-5.528.541-9.743 1.272-19.928 4.255-28.681 8.396a2.65 2.65 0 1 0 2.266 4.791c8.267-3.912 17.892-6.728 27.102-7.931a78.646 78.646 0 0 1 6.509-.582 98.292 98.292 0 0 0 1.924 5.072c-13.09 2.556-22.885 6.684-33.965 16.601a2.651 2.651 0 0 0 3.534 3.949c10.604-9.492 19.69-13.2 32.663-15.584 5.152 10.531 11.588 17.78 18.635 22.371 4.517 2.943 9.962 6.532 19.788 9.863 10.198 3.457 25.116 6.636 48.628 8.529 11.18.724 18.309.456 28.465-.433 24.183-2.251 38.577-5.931 48.131-9.75 7.093-2.836 11.518-5.748 15.296-8.209 7.046-4.591 13.482-11.84 18.636-22.371 12.97 2.384 22.057 6.092 32.661 15.584a2.63 2.63 0 0 0 1.767.676 2.65 2.65 0 0 0 1.768-4.625c-11.08-9.917-20.874-14.045-33.966-16.601a96.396 96.396 0 0 0 1.924-5.072c2.128.1 4.311.294 6.51.582 9.21 1.203 18.834 4.02 27.101 7.931a2.647 2.647 0 0 0 3.528-1.263 2.649 2.649 0 0 0-1.261-3.528Z" fill="#493B38"/><path d="M204.101 207.234c-2.239.196-4.328.362-6.348.494l.833 6.769a153.034 153.034 0 0 0 5.64 7.491c7.663-2.156 8.716-2.724 11.721-4.976-4.313-3.61-8.301-6.92-11.846-9.778Z" fill="#1D0C1D"/><path d="M215.947 217.012c-3.005 2.251-4.059 2.819-11.721 4.975 9.644 12.033 19.153 20.293 27.193 29.485 6.757-3.265 12.379-4.94 18.163-6.608-12.028-9.632-23.699-19.537-33.635-27.852Z" fill="#382738"/><path d="M200.098 222.829a978.64 978.64 0 0 0-1.512-8.33l-.164-.233.164.231-.833-6.77c-6.079.396-11.519.482-18.372.151l-.084 13.225a199.22 199.22 0 0 1-.104 2.675 61.99 61.99 0 0 0 6.526.331c4.824 0 9.72-.499 14.379-1.28" fill="#1D0C1D"/><path d="M185.72 224.109c-2.202 0-4.387-.105-6.527-.33-.704 15.808-3.369 31.55-6.776 47.004l23.265 18.028 14.35-20.488c-8.976-13.166-14.212-28.598-17.7-44.508a78.635 78.635 0 0 1-6.612.294Z" fill="#382738"/><path d="M200.098 222.829c-2.535.425-5.14.762-7.765.985 3.486 15.911 8.724 31.344 17.698 44.509l.434-.62c-5.73-13.634-7.99-31.473-10.367-44.874Z" fill="#1D0C1D"/><path d="m113.11 305.976.486-.181c-.116-.081-.282-.007-.486.181Z" fill="#493B38"/><path d="M142.051 355.469c-11.967-1.65-23.521-10.728-27.648-22.283-3.211-8.829-2.081-17.832 1.132-26.221-1.24-.727-1.939-1.17-1.939-1.17l-.486.182c-1.664 1.525-5.892 10.982-6.215 12.021-1.523 4.908-2.04 10.133-1.552 15.247 1.051 11.002 7.48 21.529 17.644 26.294 11.633 5.456 25.929 4.747 38.447 4.747 17.086 0 33.397-4.52 48.233-12.295-21.943 5.699-45.764 6.234-67.616 3.478Z" fill="#1D0C1D"/><path d="M253.357 244.041a95.38 95.38 0 0 0-3.776.823c-5.784 1.668-11.405 3.343-18.163 6.608l.115.131c-.037-.044-.077-.088-.115-.131-10.149 5.192-17.744 12.048-24.064 19.439l-11.672 17.9-.022-.019c1.522 7.313 2.213 14.805-.72 16.739-6.155 4.056-13.847 8.812-32.952 13.846-15.68 4.134-38.215-7.665-45.792-12.029a91.508 91.508 0 0 1-.66-.384c-3.214 8.389-4.344 17.392-1.132 26.221 4.125 11.555 15.68 20.634 27.648 22.283 21.85 2.757 45.672 2.221 67.614-3.477 19.386-10.159 36.255-25.876 49.044-44.34l-.074-.108.074.108.008-.012a153.705 153.705 0 0 0 10.336-17.236c.095-.184.192-.366.284-.55 6.138-10.945 16.818-18.268 16.818-18.268 10.06-.837 13.73-3.165 13.73-6.068 0-6.045-22.084-26.293-46.529-21.476Z" fill="#382738"/><path d="M131.735 304.301c-14.443-6.603-26.823-18.156-31.362-33.838-1.114-3.59-1.593-7.294-1.51-10.974-6.848 3.29-12.49 8.541-15.782 16.313l23.582 24.58a94.595 94.595 0 0 0 6.933 5.413s29.287 18.618 48.392 13.583c7.789-2.053 13.68-4.059 18.344-5.992-16.557 1.061-33.493-2.113-48.597-9.085Z" fill="#1D0C1D"/><path d="m195.659 288.793-23.242-18.011c-7.008-4.438-14.923-8.636-24.042-11.594-4.289-1.595-19.698-4.724-25.897-4.247-.409-.005-.82-.008-1.232-.008-7.907 0-15.717 1.349-22.384 4.555-.081 3.681.397 7.385 1.512 10.976 4.539 15.681 16.919 27.234 31.361 33.837 15.104 6.971 32.04 10.147 48.598 9.085 6.776-2.805 10.962-5.453 14.606-7.854 2.934-1.934 2.244-9.427.72-16.739m-190.5 45.372a38.961 38.961 0 0 0-.694 7.455c.015 9.577 2.083 19.431 5.02 28.697 1.604 5.06 7.144 7.664 12.088 5.731 12.572-4.916 23.145-14.457 37.524-40.061 0 0-34.91 9.932-53.938-1.822" fill="#382738"/><path d="M83.082 275.802c-38.868 19.321-72.728 31.512-77.923 58.363 19.027 11.754 53.937 1.822 53.937 1.822 17.375-10.997 33.27-23.18 47.567-35.605l-23.581-24.58Zm71.748-7.306c.026-.001.053-.005.08-.008-.15-.071-.184-.073-.08.008Z" fill="#1D0C1D"/><path d="M180.984 225.911c1.615-6.229 3.281-11.923 5.344-16.725-.565-.008-1.576-.066-4.009-.183-3.506 3.643-6.151 12.539-8.826 22.371-.6 2.21-1.204 4.466-1.817 6.722 2.573-3.657 4.928-7.501 7.925-10.961.435-.435.903-.836 1.383-1.224Z" fill="#19101D"/><path d="M180.984 225.911c-.48.388-.948.789-1.383 1.224-1.466 1.693-2.778 3.477-4.038 5.289-2.53 12.796-7.376 25.454-7.882 38.227 6.142-14.213 9.399-29.315 12.69-42.341.204-.81.408-1.607.613-2.399Z" fill="#2B1D3A"/><path d="M171.676 238.096c-4.085 15.015-8.683 29.958-16.767 30.392.826.395 5.291 2.984 10.866 6.368a111.496 111.496 0 0 0 1.906-4.205c.506-12.773 5.352-25.429 7.882-38.227-1.315 1.89-2.572 3.806-3.887 5.672Z" fill="#241829"/><path d="M200.438 271.975c-2.512-21.128-6.18-42.459-8.768-56.412l-.165-.233c.054.077.11.153.165.23l-.835-6.769c-3.921.256-3.477.407-4.506.395-6.968 16.228-9.43 42.566-20.554 65.67 7.812 4.743 17.799 11.038 22.991 15.019l11.672-17.9Zm123.996 70.62c14.377 25.602 26.349 38.225 38.92 43.141 4.943 1.935 10.485-.671 12.088-5.731 2.937-9.266 5.005-19.12 5.02-28.697.004-3.768-.673-7.365-1.931-10.824-18.238 35.423-36.254 9.343-54.097 2.111Z" fill="#241829"/><path d="M286.155 271.586s-10.68 7.322-16.816 18.268l1.27 1.308c17.129 17.574 36.45 40.434 53.825 51.433 17.843 7.232 35.859 33.312 54.097-2.111-9.809-26.982-55.233-45.408-92.376-68.898Zm-82.054-64.352c-2.239.196-4.328.362-6.348.494l.833 6.769a153.034 153.034 0 0 0 5.64 7.491c7.663-2.156 8.716-2.724 11.721-4.976-4.313-3.61-8.301-6.92-11.846-9.778Z" fill="#19101D"/><path d="M215.947 217.012c-3.005 2.251-4.059 2.819-11.721 4.975 9.644 12.033 19.153 20.293 27.193 29.485 6.757-3.265 12.379-4.94 18.163-6.608-12.028-9.632-23.699-19.537-33.635-27.852Z" fill="#382738"/><path d="M200.098 222.829a978.64 978.64 0 0 0-1.512-8.33l-.164-.233.164.231-.833-6.77c-6.079.396-11.519.482-18.372.151l-.084 13.225a199.22 199.22 0 0 1-.104 2.675 61.99 61.99 0 0 0 6.526.331c4.824 0 9.72-.499 14.379-1.28" fill="#19101D"/><path d="M185.72 224.109c-2.202 0-4.387-.105-6.527-.33-.704 15.808-3.369 31.55-6.776 47.004l23.265 18.028 14.35-20.488c-8.976-13.166-14.212-28.598-17.7-44.508a78.635 78.635 0 0 1-6.612.294Z" fill="#2B1D3A"/><path d="M200.098 222.829c-2.535.425-5.14.762-7.765.985 3.486 15.911 8.724 31.344 17.698 44.509l.434-.62c-5.73-13.634-7.99-31.473-10.367-44.874Z" fill="#1D0C1D"/><path d="m113.11 305.976.486-.181c-.116-.081-.282-.007-.486.181Z" fill="#493B38"/><path d="M142.051 355.469c-11.967-1.65-23.521-10.728-27.648-22.283-3.211-8.829-2.081-17.832 1.132-26.221-1.24-.727-1.939-1.17-1.939-1.17l-.486.182c-1.664 1.525-5.892 10.982-6.215 12.021-1.523 4.908-2.04 10.133-1.552 15.247 1.051 11.002 7.48 21.529 17.644 26.294 11.633 5.456 25.929 4.747 38.447 4.747 17.086 0 33.324-4.104 48.161-11.88-21.943 5.701-45.692 5.819-67.544 3.063Z" fill="#19101D"/><path d="M213.439 298.523c-6.709 2.632-13.336 5.388-19.985 7.976-5.95 3.838-13.863 8.239-31.466 12.879-15.68 4.132-38.214-7.665-45.792-12.029l-.661-.384c-3.213 8.389-4.343 17.392-1.132 26.221 4.127 11.555 15.681 20.633 27.648 22.283 21.852 2.756 45.601 2.638 67.544-3.063 19.385-10.159 36.325-26.292 49.115-44.755l-.075-.108c.025.036.051.071.075.108l.008-.012a153.862 153.862 0 0 0 10.249-17.072c-19.593-3.913-38.369.603-55.528 7.956Z" fill="#241829"/><path d="M188.045 319.699c0 3.845-25.11 15.344-37.508 15.344-12.397 0-32.108-14.625-32.108-18.471 0-3.845 15.732 8.242 28.131 8.242 12.397 0 41.485-8.96 41.485-5.115Z" fill="#342B4F"/><path d="M253.357 244.041a95.38 95.38 0 0 0-3.776.823c-5.784 1.668-11.405 3.343-18.163 6.608l.115.131c-.037-.044-.077-.088-.115-.131-10.149 5.192-17.744 12.048-24.064 19.439l-11.672 17.9-.022-.019c1.522 7.313 2.213 14.805-.72 16.739-.484.318-.979.642-1.487.969 6.651-2.589 13.276-5.345 19.987-7.977 17.158-7.352 35.934-11.87 55.528-7.955l.086-.165c.095-.184.192-.366.284-.55 6.138-10.945 16.818-18.268 16.818-18.268 10.06-.837 13.73-3.165 13.73-6.068 0-6.045-22.084-26.293-46.529-21.476Zm-121.622 60.26c-14.443-6.603-26.823-18.156-31.362-33.838-1.114-3.59-1.593-7.294-1.51-10.974-6.848 3.29-12.49 8.541-15.782 16.313l23.582 24.58a94.595 94.595 0 0 0 6.933 5.413s29.287 18.618 48.392 13.583c7.789-2.053 13.68-4.059 18.344-5.992-16.557 1.061-33.493-2.113-48.597-9.085Z" fill="#19101D"/><path d="m195.659 288.793-23.242-18.011c-7.008-4.438-14.923-8.636-24.042-11.594-4.289-1.595-19.698-4.724-25.897-4.247-.409-.005-.82-.008-1.232-.008-7.907 0-15.717 1.349-22.384 4.555-.081 3.681.397 7.385 1.512 10.976 4.539 15.681 16.919 27.234 31.361 33.837 15.104 6.971 32.04 10.147 48.598 9.085 6.776-2.805 10.962-5.453 14.606-7.854 2.934-1.934 2.244-9.427.72-16.739m-190.5 45.372a38.961 38.961 0 0 0-.694 7.455c.015 9.577 2.083 19.431 5.02 28.697 1.604 5.06 7.144 7.664 12.088 5.731 12.572-4.916 23.145-14.457 37.524-40.061 0 0-34.91 9.932-53.938-1.822" fill="#241829"/><path d="M83.082 275.802c-38.868 19.321-72.728 31.512-77.923 58.363 19.027 11.754 53.937 1.822 53.937 1.822 17.375-10.997 33.27-23.18 47.567-35.605l-23.581-24.58Z" fill="#19101D"/><path d="M86.353 161.938c-11.78 2.3-20.892 5.876-30.672 13.796.04.077.078.153.126.232.825 2.064 4.539-.412 7.015-2.063 8.867-5.642 18.524-8.526 28.964-10.581a3.55 3.55 0 0 0-.095-.624c-.417-1.739-5.338-.76-5.338-.76Z" fill="#382738"/><path d="M55.807 175.966c-.048-.079-.084-.155-.127-.232a87.176 87.176 0 0 0-3.292 2.805 2.651 2.651 0 0 0 3.535 3.95c10.604-9.492 19.69-13.2 32.661-15.584 2.339-1.01 3.286-2.146 3.202-3.583-10.44 2.055-20.098 4.939-28.964 10.581-2.476 1.651-6.19 4.127-7.015 2.063Z" fill="#1D0C1D"/><path d="M86.786 154.546a3.475 3.475 0 0 0-.173-1.101c-.627-2.018-3.852-1.794-3.852-1.794a85.77 85.77 0 0 0-5.528.54c-9.743 1.274-19.928 4.255-28.682 8.398a2.644 2.644 0 0 0-1.505 2.173h2.572c12.663-.396 24.567-10.651 37.168-8.216Z" fill="#382738"/><path d="M49.617 162.761h-2.57c-.039.451.034.918.242 1.356a2.647 2.647 0 0 0 3.53 1.262c8.266-3.912 17.89-6.728 27.101-7.931a78.604 78.604 0 0 1 6.51-.583c1.823-.496 2.334-1.42 2.355-2.32-12.6-2.433-24.505 7.82-37.168 8.216Zm271.111 16.919c-7.427-9.904-19.807-12.38-30.535-17.332-.053 0-.106-.028-.157-.076-.541-.115-1.088-.227-1.641-.335-8.563.424-7.984 4.81-2.232 4.967 12.972 2.384 22.057 6.092 32.661 15.584.441.395.979.605 1.527.655.762-1.227 1.229-2.4.377-3.463Z" fill="#1D0C1D"/><path d="M322.36 178.539c-10.611-9.498-20.046-13.685-32.323-16.266.049.048.103.076.156.076 10.728 4.952 23.108 7.428 30.535 17.33.852 1.064.385 2.238-.378 3.464.082.007.16.022.242.022a2.65 2.65 0 0 0 1.768-4.626Z" fill="#382738"/><path d="M291.986 151.651c2.611-8.9 4.529-19.363 5.568-31.558-18.233 37.359-61.321 63.614-111.579 63.614-47.326 0-88.294-23.284-108.137-57.196 1.107 9.492 2.783 17.841 4.924 25.14 0 0 3.224-.224 3.85 1.793.354 1.137.418 2.713-2.182 3.421a95.927 95.927 0 0 0 1.923 5.072s4.921-.978 5.338.76c.418 1.74-.438 3.056-3.106 4.207 5.152 10.531 11.588 17.78 18.634 22.371 4.518 2.942 9.963 6.532 19.79 9.862 10.197 3.458 25.114 6.636 48.626 8.53 11.182.724 18.311.456 28.466-.432 24.184-2.251 38.578-5.932 48.132-9.751 7.092-2.836 11.517-5.748 15.294-8.209 7.047-4.591 13.484-11.84 18.636-22.371-5.753-.157-6.33-4.543 2.232-4.967a95.402 95.402 0 0 0 1.923-5.072c-5.667.052-3.74-5.393 1.668-5.214Z" fill="#1D0C1D"/><path d="M287.239 153.704c-.896 1.472-.116 3.191 3.08 3.162 2.128.1 4.31.294 6.508.582 9.212 1.203 18.834 4.02 27.102 7.931a2.65 2.65 0 0 0 3.728-1.871c-11.809-7.352-26.526-9.581-40.418-9.804Z" fill="#1D0C1D"/><path d="M326.196 160.588c-8.752-4.141-18.939-7.124-28.682-8.396a84.944 84.944 0 0 0-5.528-.541c-2.36-.079-4.054.913-4.748 2.053 13.892.223 28.61 2.452 40.42 9.803a2.649 2.649 0 0 0-1.462-2.919Z" fill="#382738"/><path d="M217.978 10.493c4.228 1.755 8.301 3.76 12.284 5.896 2.86-3.669 5.999-6.145 9.237-6.169C219.683 2.427 208.117 0 187.374 0c-20.744 0-32.312 2.427-52.125 10.22 2.549.02 5.037 1.557 7.376 4.001 25.62-6.804 50.874-14.172 75.353-3.728Z" fill="#342B4F"/><path d="M297.631 75.123c-.17-2.565-.675-5.309-1.413-8.116-2.045-7.792-5.902-16.064-9.508-22.354l.006-.179-.013.33c-1.362 28.155-7.171 35.783-10.162 36.826-.112.039-.22.07-.324.09-3.257.674-3.348-8.625-6.278-11.95-10.222-11.601-25.015-18.104-34.279-18.73-13.319-.897-19.453-.298-19.005-3.59.473-3.475 6.082-21.408 13.608-31.06-3.984-2.139-8.056-4.141-12.284-5.897-24.48-10.444-49.734-3.075-75.354 3.73 8.446 8.822 14.956 29.471 15.468 33.227.45 3.292-3.094-1.381-16.414-.483-9.263.624-27.214 6.795-37.067 18.712-4.031 4.874-2.824 16.715-6.083 16.042a2.815 2.815 0 0 1-.6-.203c-3.06-1.41-8.565-9.408-9.884-36.713-3.105 5.16-6.183 11.33-8.29 17.692-1.394 4.205-2.364 8.492-2.638 12.626-1.321 19.995-.956 37.006.721 51.388 19.843 33.911 60.81 57.195 108.137 57.195 50.257 0 93.346-26.255 111.578-63.612 1.103-12.959 1.208-27.872.078-44.97Z" fill="#241829"/><path d="M241.567 64.865c13.657-16.394-36.639-41.175-46.898-48.668-23.217-16.96-62.554 51.853-54.689 55.422 9.953 4.516 23.917 8.118 48.324 3.559 13.92-2.6 49.74-6.085 53.263-10.313Z" fill="#342B4F"/><path d="M267.084 19.984c-11.019-5.721-23.452-6.763-35.736-4.915-5.611 6.423-10.286 17.815-12.778 25.383 14.654-7.096 29.707-13.085 46.451-15.93 2.063 0 3.713-3.712 2.063-4.538Z" fill="#342B4F"/><path d="M278.629 17.557c-4.775-3.441-20.695-8.02-39.131-7.336-2.833.021-5.589 1.919-8.15 4.85 12.284-1.848 24.717-.809 35.736 4.913 1.65.825 0 4.54-2.063 4.54-16.745 2.842-31.797 8.833-46.451 15.928-.721 2.188-1.26 4.059-1.586 5.393-.167.684-.278 1.23-.33 1.604-.448 3.294 5.687 2.695 19.006 3.592 9.264.626 24.057 7.128 34.278 18.73 2.931 3.325 3.022 12.623 6.279 11.95 2.861-.59 9.02-7.654 10.465-36.539l.02-.377c.006-.11.01-.22.014-.33.636-14.053-2.584-22.951-8.087-26.918Z" fill="#241829"/><path d="M135.248 10.22c-14.282-.529-27.052 2.1-34.301 4.913-.381 2.313.209 4.66 2.315 6.502.846.699 1.72 1.358 2.613 1.986 14.519 1.786 37.883 9.85 51.601 21.114-2.492-9.196-11.844-34.436-22.228-34.514Z" fill="#342B4F"/><path d="M158.093 47.45a10.387 10.387 0 0 0-.096-.558 33.592 33.592 0 0 0-.52-2.157c-13.719-11.263-37.083-19.328-51.603-21.115a42.45 42.45 0 0 1-2.612-1.985c-2.107-1.843-2.696-4.188-2.315-6.503-2.108.818-3.753 1.651-4.829 2.426-2.04 1.47-3.765 3.621-5.099 6.46-2.289 4.876-3.418 11.784-2.974 20.788 1.41 29.202 7.457 36.4 10.33 36.994.038.008.407.028.443.034 3.151.442 6.647-18.399 9.544-21.686 10.221-11.601 25.619-12.316 34.88-12.94 13.32-.898 15.3 3.535 14.851.242Zm72.301 187.469c-10.378-9.476-20.967-19.329-33.127-27.028l1.533 8.049c3.075 5.97 7.831 11.522 13.015 16.819 4.416 1.664 9.081 2.397 13.828 2.397 1.577 0 3.163-.084 4.751-.237" fill="#2B1D3A"/><path d="M225.644 235.156c-4.748 0-9.414-.733-13.828-2.397 6.532 6.676 13.745 12.945 19.137 19.128l12.579-5.354c-4.411-3.677-8.755-7.613-13.138-11.614a49.239 49.239 0 0 1-4.75.237Z" fill="#3F2B4E"/><path d="M243.395 254.98c-1.447 1.571-5.396-.526-9.112-3.949-3.715-3.423-8.439-7.019-6.744-9.252 2.014-2.657 8.489-.212 12.204 3.213 3.716 3.423 5.098 8.418 3.652 9.988Zm-25.62-24.024c-.955 1.034-4.329-1.058-7.683-4.146-3.35-3.089-7.52-6.43-6.45-7.949 1.272-1.804 6.686.864 10.04 3.952 3.35 3.088 5.048 7.107 4.093 8.143Z" fill="#26514C"/><path d="M42.072 296.153c-18.935 8.586-37.639 22.72-37.607 45.467.015 9.577 2.083 19.431 5.02 28.697.975 3.076 3.323 5.642 6.271 6.038 13.45 1.809 10.007-27.128 28.327-43.294 10.022-8.844 28.39-18.73 49.296-29.812-17.034.252-34.167-2.74-51.307-7.096Z" fill="#3F2B4E"/><path d="M93.379 303.25c3.58-1.899 7.234-3.831 10.936-5.802 0 0-14.153-12.364-23.498-13.382-2.444.757-20.7 3.902-38.745 12.088 17.14 4.354 34.273 7.346 51.306 7.096Z" fill="#2F1A3C"/><path d="M227.882 370.737c5.183 5.052 9.224 10.715 12.409 16.783-5.185-22.159-20.208-30.776-38.904-31.2 0 0-5.268 2.209-8.277 3.009 1.253 1.039 2.638 2.455 4.232 3.879.922-.31 1.885-.555 2.893-.723 10.316-2.476 20.22 1.651 27.647 8.252Z" fill="#19101D"/><path d="M239.849 408.289c-4.126 9.079-12.38 14.443-21.458 16.917-3.3 1.239-6.188 1.239-9.491 2.478-7.84 2.474-16.093-2.478-17.744-10.73a47.192 47.192 0 0 1-1.049-11.905c-3.39 13.848 1.337 23.923 3.04 25.34 1.416 1.181 4.556 2.139 8.689 2.697 6.88.93 16.515.758 25.544-1.32 7.195-1.945 15.944-6.741 14.857-29.589a94.463 94.463 0 0 1-2.388 6.112Z" fill="#2B1D3A"/><path d="M205.599 400.861c2.888-11.554 17.331-21.458 8.252-33.012-1.546-1.99-3.06-3.95-4.493-5.918a26.216 26.216 0 0 0-9.123.554c-1.008.168-1.97.413-2.893.722 1.812 1.62 3.903 3.515 6.427 5.763 13.245 11.8-4.575 12.523-11.559 29.62a46.092 46.092 0 0 0-2.103 6.46 47.14 47.14 0 0 0 1.05 11.904c1.504 7.523 8.494 12.3 15.658 11.212-2.72-8.619-3.349-17.885-1.216-27.305Z" fill="#3E2B4E"/><path d="M242.058 399.311c-.338-4.309-.934-8.231-1.767-11.792-3.185-6.068-7.227-11.731-12.409-16.783-3.228-2.868-6.923-5.269-10.918-6.864a31.14 31.14 0 0 0-2.725-.948 28.494 28.494 0 0 0-4.88-.993c1.432 1.968 2.947 3.928 4.493 5.917 9.078 11.555-5.365 21.459-8.253 33.012-2.132 9.422-1.504 18.687 1.216 27.306a13.833 13.833 0 0 0 2.085-.483c3.302-1.237 6.19-1.237 9.491-2.476 9.079-2.476 17.332-7.84 21.459-16.919a94.817 94.817 0 0 0 2.388-6.112 94.544 94.544 0 0 0-.18-2.865Z" fill="#2B1D3A"/><path d="m280.688 275.573-10.28 11.534c7.357 7.466 15.864 14.698 24.441 21.428 9.346-5.752 19.423-8.289 29.762-9.214-14.618-7.442-30.136-15.03-43.923-23.748Z" fill="#2F1A3C"/><path d="M324.611 299.32c-10.339.925-20.417 3.464-29.761 9.215 18.8 14.754 37.933 27.1 45.994 34.214 18.32 16.164 10.015 39.364 28.327 43.294a9.1 9.1 0 0 0 6.271-6.038c2.937-9.266 5.005-19.12 5.02-28.697.032-22.257-26.036-36.813-55.851-51.988Z" fill="#3F2B4E"/><path d="M188.877 282.282c.372-13.022.714-26.166.714-39.297 0-11.529-.264-23.048-1.004-34.459-.901 41.474-2.01 47.439-5.628 69.484" fill="#19101D"/><path d="M202.97 277.523c-7.965-7.328-12.601-42.75-13.817-56.646l-.3 76.706" fill="#19101D"/><path d="M178.364 205.264c-24.702-1.505-53.58-8.953-71.548-27.151 1.624 6.47 5.484 12.115 10.602 17.119 11.044 5.384 29.702 13.227 69.956 13.227 40.253 0 58.912-7.843 69.956-13.227 4.769-4.664 8.445-9.885 10.237-15.811-25.032 20.784-57.28 28.044-89.203 25.843Z" fill="#F0AE50"/><path d="M265.565 157.021c.032-10.416 1.172-13.329 1.558-16.512 1.884-15.584 12.954-45.47-19.814-49.534-20.576-2.551-25.172 18.438-59.936 20.222-34.764-1.784-39.36-22.773-59.934-20.222-32.77 4.065-21.699 33.95-19.815 49.534.375 3.092 1.46 5.93 1.552 15.63.003.288.004.581.005.882-2.002 4.643-3.208 9.495-3.208 14.239 0 2.384.295 4.665.843 6.853 17.969 18.198 46.845 25.646 71.548 27.151 31.923 2.201 64.172-5.059 89.203-25.843a28.026 28.026 0 0 0 1.206-8.161c0-4.629-1.149-9.363-3.068-13.904a19.697 19.697 0 0 0-.14-.335Z" fill="#D69D60"/><path d="M171.608 232.275c2.81-3.604 5.532-12.588 8.149-16.466.893-6.845 1.027-7.536 1.027-7.536-8.795 7.311-15.11 15.842-21.944 24.672 1.433.187 2.881.282 4.336.282 2.809 0 5.64-.336 8.432-.952" fill="#2B1D3A"/><path d="M163.175 233.226c-1.454 0-2.902-.094-4.336-.281-6.025 7.781-12.453 15.797-21.34 23.415l10.876 2.828c12.111-13.507 18.435-20.764 23.232-26.914-2.792.616-5.622.952-8.432.952Z" fill="#3F2B4E"/><path d="M135.217 263.311c-1.29-1.461 2.868-4.576 7.469-8.639 4.601-4.061 8.743-10.332 10.672-8.637 2.295 2.015-1.988 8.944-6.589 13.007-4.602 4.062-10.263 5.729-11.552 4.269Zm39.224-40.615c1.008.983-1.891 3.527-5.071 6.792-3.18 3.264-5.925 8.112-7.413 6.999-1.768-1.321 1.049-6.66 4.231-9.925 3.18-3.264 7.244-4.848 8.253-3.866Z" fill="#26514C"/><path d="M126.093 255.062a91.652 91.652 0 0 0-4.847-.129c-19.248 0-37.932 7.976-40.901 31.327-.107.049.79 4.822 6.87 4.822 2.682 0 5.866-.829 9.168-1.954 7.815-5.854 17.186-9.07 28.923-9.07 18.675 0 33.055 7.042 44.831 13.824-2.806-5.981-6.02-11.826-10.342-17.229-9.069-11.736-20.821-18.107-33.702-21.591Z" fill="#3F2B4E"/><path d="M195.467 286.903c-15.618-10.338-36.016-30.07-69.374-31.841 12.882 3.484 24.634 9.855 33.703 21.592 4.321 5.401 7.535 11.247 10.341 17.228 5.411 3.117 10.272 6.179 14.747 8.477l10.583-15.456Z" fill="#2F1A3C"/><path d="M124.474 264.26c.957 3.778-5.166 5.668-14.667 8.078-9.501 2.408-18.84 5.196-19.799 1.418-.957-3.777 5.97-8.792 15.471-11.2 9.501-2.409 18.037-2.073 18.995 1.704Zm23.526-.165c-3.974-.367-6.939.37-7.619 2.201-1.105 2.977 5.073 6.172 12.777 9.033 2.94 1.091 5.675 1.975 7.998 2.487-1.704-6.193-7.083-11.076-13.156-13.721Z" fill="#81C9CA"/><path d="M156.331 266.087c-2.965-1.101-5.845-1.763-8.332-1.992 6.075 2.645 11.452 7.527 13.157 13.721 3.763.83 6.438.682 7.122-1.16 1.105-2.977-4.244-7.708-11.947-10.569Zm45.59 36.538c-1.505 1.888-6.925-1.61-13.352-6.731-6.427-5.12-11.427-9.924-9.923-11.812 1.504-1.888 7.934.732 14.36 5.852 6.428 5.12 10.419 10.803 8.915 12.691Z" fill="#26514C"/><path d="M152.83 47.043c-33.998 1.986-46.334 11.961-54.37 31.122-.024-.106-8.9-45.437-.468-48.248 7.951-2.65 42.036 5.233 54.838 17.126Zm69.087-.181c33.997 1.987 46.335 11.962 54.369 31.123.026-.107 8.902-45.437.47-48.25-7.951-2.649-42.038 5.234-54.839 17.127Z" fill="#19101D"/><path d="M224.994 259.321a67.23 67.23 0 0 1 7.503-8.385c-29.896 14.685-38.015 43.636-55.431 59.496 20.205-11.139 33.373-31.817 47.928-51.111Z" fill="#2F1A3C"/><path d="M253.357 244.041c-7.997 1.578-14.864 3.951-20.861 6.895a67.461 67.461 0 0 0-7.502 8.385c-14.554 19.294-27.722 39.972-47.928 51.111-4.302 3.917-9.172 7.037-15.078 8.945 40.721-4.906 54.678-42.712 123.369-47.729 10.664-.779 14.529-3.152 14.529-6.131 0-6.045-22.084-26.293-46.529-21.476Z" fill="#3F2B4E"/><path d="M221.994 262.651c-2.288 1.181-4.7 2.754-7.062 4.672-7.804 6.334-12.089 13.985-9.572 17.088.075.092.152.174.232.25 3.612-8.516 9.175-16.14 16.402-22.01Z" fill="#26514C"/><path d="M233.624 261.472c-1.756-2.164-6.36-1.541-11.631 1.179-7.226 5.871-12.788 13.495-16.4 22.011 2.62 2.52 8.142-2.926 15.716-9.072 7.804-6.335 14.834-11.014 12.315-14.118Zm48.216-5.05c-.336 3.678-7.281 3.588-16.264 2.765-8.983-.821-16.6-2.065-16.264-5.743.336-3.677 7.891-5.993 16.873-5.17 8.983.822 15.992 4.47 15.655 8.148Z" fill="#81C9CA"/><path d="M193.641 178.135c0 1.341-2.568 2.429-5.736 2.429-3.168 0-5.736-1.088-5.736-2.429 0-1.343 2.568-2.431 5.736-2.431 3.168 0 5.736 1.088 5.736 2.431Z" fill="#AD5C6B"/><path d="M166.446 169.578a20.768 20.768 0 0 1-7.694 3.188c-1.387.275-2.81.391-4.228.357-.714.016-1.418-.08-2.127-.133-.352-.043-.701-.108-1.052-.161l-.525-.086-.52-.114c-2.778-.599-5.4-1.744-7.788-3.19-2.398-1.444-4.562-3.209-6.498-5.181 2.362 1.44 4.684 2.876 7.11 4.064 2.42 1.192 4.933 2.145 7.525 2.711l.485.113.49.084.98.163c.658.072 1.314.168 1.977.189 1.324.117 2.653.043 3.983-.072 2.661-.271 5.285-.989 7.882-1.932Zm42.886 0c2.691.939 5.403 1.649 8.15 1.919 1.374.113 2.746.189 4.113.073a25.637 25.637 0 0 0 4.064-.543c2.681-.561 5.288-1.505 7.803-2.697 2.518-1.187 4.94-2.624 7.396-4.072-2.034 1.996-4.299 3.771-6.791 5.22-2.485 1.449-5.203 2.585-8.067 3.176a11.52 11.52 0 0 1-1.077.197c-.361.052-.721.12-1.084.158-.729.054-1.456.146-2.189.129a20.922 20.922 0 0 1-4.351-.361 22 22 0 0 1-7.967-3.199Zm-56.446 12.989 4.17.333c1.384.091 2.762.164 4.139.161a46.686 46.686 0 0 0 4.129-.153 67.824 67.824 0 0 0 4.144-.493c-1.293.557-2.662.934-4.054 1.18-1.392.252-2.81.353-4.223.354a27.242 27.242 0 0 1-4.215-.364 24.781 24.781 0 0 1-4.09-1.018Zm68.975 0c-1.329.461-2.7.789-4.089 1.018-1.39.234-2.802.348-4.216.364-1.414-.001-2.831-.102-4.223-.354-1.391-.246-2.76-.623-4.055-1.18 1.394.201 2.768.38 4.144.493 1.376.107 2.752.168 4.131.153 1.377.003 2.755-.07 4.137-.161l4.171-.333Z" fill="#665959"/><path d="M164.068 183.285c3.076 3.421 6.544 6.443 10.523 8.465 3.99 2.018 8.358 3.222 12.764 3.186 4.396-.046 8.81-1.18 12.77-3.212 3.972-2.048 7.474-5.019 10.555-8.439-2.391 3.935-5.713 7.405-9.768 9.843a26.785 26.785 0 0 1-13.545 3.87c-4.798.036-9.526-1.425-13.552-3.845-4.08-2.424-7.358-5.939-9.747-9.868Z" fill="#665959"/><path d="M23.444 337.29c-4.138 8.288-1.422 17.131-6.377 16.172-4.956-.959-7.872-9.865-6.112-18.961 1.759-9.095 8.608-17.654 13.555-16.648 6.101 1.241 3.172 10.952-1.066 19.437ZM50 298.316c-5.328 3.98-8.995 9.052-7.232 12.847 2.28 4.91 11.861-2.855 21.13-6.116 3.102-1.092 6.072-2.034 8.602-2.948-7.594-.791-15.17-1.672-22.5-3.783Z" fill="#81C9CA"/><path d="M79.914 295.976c-1.368-3.886-11.198-6.028-20.468-2.765-3.24 1.14-6.583 2.965-9.447 5.105 7.33 2.111 14.907 2.992 22.501 3.783 5.034-1.82 8.324-3.537 7.414-6.123Zm281.569 51.002c4.139 8.289 1.422 17.131 6.376 16.172 4.956-.959 7.874-9.865 6.114-18.96-1.759-9.096-8.61-17.655-13.555-16.649-6.103 1.241-3.173 10.952 1.065 19.437Zm-23.121-31.979c1.651-3.21-6.074-6.316-14.812-10.812-8.738-4.495-17.406-13.038-20.029-9.079-3.117 4.705 5.983 14.307 14.721 18.801 8.739 4.496 18.47 4.298 20.12 1.09Z" fill="#81C9CA"/><path d="M239.843 390.585c1.937 9.921.822 18.488-2.488 19.136-3.312.646-7.567-6.874-9.504-16.795-1.938-9.921-.823-18.488 2.488-19.136 3.31-.645 7.566 6.873 9.504 16.795Z" fill="#437B7D"/></svg>